<svg width="152" height="112" viewBox="0 0 152 112" fill="none" xmlns="http://www.w3.org/2000/svg">
<path d="M141.414 50.7273H141.377V48.2866L139.148 48.2637C139.159 48.1524 139.163 48.0385 139.163 47.9239C139.163 47.3214 139.044 46.7249 138.812 46.1683C138.581 45.6118 138.242 45.1061 137.814 44.6801C137.387 44.2541 136.88 43.9162 136.321 43.6856C135.763 43.4551 135.164 43.3365 134.559 43.3365C133.955 43.3365 133.356 43.4551 132.798 43.6856C132.239 43.9162 131.732 44.2541 131.305 44.6801C130.877 45.1061 130.538 45.6118 130.307 46.1683C130.075 46.7249 129.956 47.3214 129.956 47.9239C129.956 48.0037 129.956 48.087 129.961 48.1668H127.593V50.5676H110.673C109.09 50.5676 107.604 51.9268 107.604 51.9268L98.712 60.5995C98.4802 59.993 98.2244 59.3983 97.9448 58.8155C98.465 58.4827 98.963 58.1166 99.4357 57.7196C103.815 54.0803 108.456 46.7668 110.973 42.4699C112.069 40.601 112.763 39.3004 112.856 39.1245C112.858 39.1201 112.86 39.1159 112.862 39.1118C112.862 39.1093 112.862 39.1067 112.862 39.1042C109.8 41.6451 107.074 43.915 104.346 46.1849L102.982 45.3243C111.274 36.9481 119.395 28.5336 109.421 16.8408C107.933 20.9619 106.336 25.3776 104.74 29.7909C104.299 29.6601 103.856 29.5284 103.415 29.3942C103.935 25.7353 104.365 22.0611 104.99 18.4209C106.178 11.4957 102.95 6.97454 97.1478 3.85256C94.3578 2.35147 91.4783 1.01517 88.3677 0C93.6307 5.15233 99.2414 10.6258 98.9064 17.9902C98.5023 26.8796 98.4895 35.6823 98.9618 44.536C99.0198 45.614 98.7137 46.8925 98.1273 47.7862C97.8715 48.1838 97.5834 48.6451 97.2859 49.1149C96.7344 49.9848 96.1334 50.8802 95.5444 51.4417L94.2376 53.1883C94.0398 52.9623 93.8378 52.7415 93.6324 52.5231C91.207 49.9455 88.2539 47.9175 84.9733 46.5765C83.3699 43.0153 82.5013 39.1127 80.9089 35.5583C79.6303 32.7039 80.4972 30.1112 83.7433 27.5804C83.4637 30.479 82.8644 32.3836 83.242 34.0691C83.583 35.6237 84.7381 37.8749 85.963 38.1935C89.7632 39.1823 91.3998 41.8464 92.5268 45.0261C93.733 48.4242 95.6671 47.6512 97.1299 45.6888C97.967 44.5657 98.1827 42.436 97.7633 41.0309C96.4152 36.5482 94.8216 32.1425 92.9896 27.8336C92.2693 26.1286 90.7307 24.7694 89.3668 22.9965C89.7785 22.2319 90.4826 20.9321 91.3436 19.3435C87.5716 20.0792 84.7133 21.6372 80.6813 21.0188C75.5215 20.2296 69.9185 22.299 65.1815 23.033L68.0107 24.7482L61.47 31.8391L66.0041 31.0745C63.4204 33.9629 61.4777 36.1317 59.2946 38.5698C60.6406 38.3311 61.5646 38.168 63.671 37.7967C61.6251 41.3605 60.095 44.0331 58.4822 46.845C59.9203 46.1161 61.2475 45.4424 63.1374 44.4825C62.7111 46.2163 62.4333 47.3419 62.0872 48.7513L62.2219 48.6833C61.1606 49.3673 60.1535 50.1313 59.2093 50.9685C58.853 51.2845 58.5061 51.6102 58.1685 51.9455C57.1166 51.316 55.9726 49.2474 55.0998 47.9069C54.5133 47.0132 54.2073 45.7346 54.2652 44.6566C54.7375 35.8029 54.7247 27.0002 54.3206 18.1109C53.9856 10.7464 59.5964 5.27296 64.8593 0.12063C61.7479 1.1358 58.8684 2.4721 56.0792 3.97319C50.2826 7.09517 47.0511 11.6189 48.2368 18.5416C48.8625 22.1818 49.2921 25.8559 49.8121 29.5148C49.3714 29.649 48.9281 29.7807 48.4874 29.9115C46.8908 25.494 45.2942 21.0825 43.8058 16.9615C33.8298 28.6559 41.9501 37.0704 50.2434 45.4467L48.8795 46.3072C46.1517 44.0373 43.424 41.7674 40.3629 39.2265C40.4694 39.4465 46.5959 51.7467 54.4195 56.7351C53.8916 57.6106 53.4198 58.5186 53.007 59.4535C52.9417 59.6013 52.8777 59.75 52.8152 59.8995L43.7888 51.101C43.7888 51.101 42.3039 49.7418 40.72 49.7418H23.7992V47.3402H21.4311C21.4311 47.2604 21.4363 47.178 21.4363 47.0981C21.4375 46.3952 21.2759 45.7016 20.964 45.0712C20.8779 44.8966 20.7805 44.7277 20.6725 44.5657C20.2595 43.9443 19.7008 43.4326 19.0447 43.0748C18.3886 42.717 17.655 42.5238 16.9072 42.5121C16.1594 42.5004 15.42 42.6705 14.753 43.0076C14.0859 43.3447 13.5114 43.8386 13.079 44.4468C12.9137 44.6794 12.771 44.9272 12.6528 45.1867C12.3764 45.7865 12.2339 46.4389 12.2351 47.099C12.2339 47.2124 12.2387 47.3258 12.2496 47.4388L10.0204 47.4617V49.9024H9.98379C9.48913 49.8949 8.99791 49.9856 8.53873 50.1691C8.07955 50.3526 7.66157 50.6253 7.30912 50.9712C6.95667 51.3172 6.67677 51.7296 6.48572 52.1844C6.29468 52.6392 6.19629 53.1273 6.19629 53.6203C6.19629 54.1133 6.29468 54.6014 6.48572 55.0562C6.67677 55.511 6.95667 55.9234 7.30912 56.2693C7.66157 56.6153 8.07955 56.888 8.53873 57.0715C8.99791 57.255 9.48913 57.3457 9.98379 57.3382H39.3084L50.9296 68.5366C50.9206 68.8152 50.9157 69.0953 50.9152 69.3767C50.9152 82.9758 61.9763 94 75.6221 94H75.8165C89.3327 93.8955 100.265 82.9758 100.327 69.4948L112.085 58.1656H141.409C141.903 58.1731 142.395 58.0824 142.854 57.8989C143.313 57.7154 143.731 57.4428 144.083 57.0968C144.436 56.7508 144.716 56.3384 144.907 55.8836C145.098 55.4289 145.196 54.9408 145.196 54.4477C145.196 53.9547 145.098 53.4666 144.907 53.0118C144.716 52.557 144.436 52.1446 144.083 51.7987C143.731 51.4527 143.313 51.18 142.854 50.9965C142.395 50.813 141.903 50.7224 141.409 50.7298L141.414 50.7273ZM89.2364 28.5693C89.4415 28.5691 89.642 28.6296 89.8126 28.743C89.9832 28.8565 90.1161 29.0178 90.1947 29.2066C90.2733 29.3954 90.2939 29.6032 90.2539 29.8036C90.2139 30.0041 90.1152 30.1882 89.9702 30.3328C89.8252 30.4773 89.6404 30.5757 89.4392 30.6155C89.2381 30.6553 89.0296 30.6348 88.8401 30.5565C88.6507 30.4782 88.4888 30.3457 88.375 30.1757C88.2612 30.0057 88.2005 29.8058 88.2007 29.6015C88.2009 29.3278 88.3101 29.0654 88.5043 28.8718C88.6984 28.6783 88.9618 28.5695 89.2364 28.5693ZM90.6642 73.6608C89.7315 76.8664 87.7795 79.6834 85.1018 81.688C82.4241 83.6925 79.1655 84.7762 75.8165 84.7759C68.2801 84.7759 62.007 79.3968 60.6431 72.2829C60.2045 69.997 60.2915 67.6417 60.8976 65.3941C61.5036 63.1465 62.613 61.065 64.1423 59.3061C65.6715 57.5471 67.5809 56.1565 69.727 55.2387C71.8731 54.3209 74.2 53.8997 76.5328 54.0069C78.8657 54.1141 81.1438 54.7469 83.1961 55.8576C85.2483 56.9683 87.0212 58.5282 88.3816 60.4199C89.7419 62.3116 90.6544 64.486 91.0503 66.7796C91.4463 69.0733 91.3154 71.4265 90.6676 73.6625L90.6642 73.6608Z" fill="url(#paint0_linear_167_559)"/>
<path d="M6.54352 47.6414C10.1574 47.6414 13.087 47.0717 13.087 46.3689C13.087 45.6661 10.1574 45.0964 6.54352 45.0964C2.92963 45.0964 0 45.6661 0 46.3689C0 47.0717 2.92963 47.6414 6.54352 47.6414Z" fill="url(#paint1_linear_167_559)"/>
<path d="M27.6348 47.6414C31.2487 47.6414 34.1783 47.0717 34.1783 46.3689C34.1783 45.6661 31.2487 45.0964 27.6348 45.0964C24.0209 45.0964 21.0913 45.6661 21.0913 46.3689C21.0913 47.0717 24.0209 47.6414 27.6348 47.6414Z" fill="url(#paint2_linear_167_559)"/>
<path d="M124.569 48.1446C128.183 48.1446 131.112 47.5749 131.112 46.8721C131.112 46.1693 128.183 45.5996 124.569 45.5996C120.955 45.5996 118.025 46.1693 118.025 46.8721C118.025 47.5749 120.955 48.1446 124.569 48.1446Z" fill="url(#paint3_linear_167_559)"/>
<path d="M145.319 48.1446C148.933 48.1446 151.862 47.5749 151.862 46.8721C151.862 46.1693 148.933 45.5996 145.319 45.5996C141.705 45.5996 138.775 46.1693 138.775 46.8721C138.775 47.5749 141.705 48.1446 145.319 48.1446Z" fill="url(#paint4_linear_167_559)"/>
<path d="M18.4272 111.222V101.368H21.7084C22.3296 101.368 22.836 101.48 23.2274 101.703C23.6203 101.928 23.927 102.267 24.1021 102.67C24.2944 103.092 24.3902 103.603 24.3896 104.203C24.3896 104.908 24.2642 105.459 24.0133 105.858C23.7793 106.241 23.4173 106.539 22.985 106.703C22.5087 106.877 22.0016 106.962 21.4916 106.953H20.5342V111.222H18.4272ZM20.5342 105.541H21.274C21.5801 105.541 21.8165 105.495 21.9832 105.401C22.0681 105.353 22.142 105.288 22.2006 105.212C22.2592 105.136 22.3013 105.049 22.3245 104.957C22.3906 104.703 22.4208 104.441 22.4141 104.179C22.4185 103.926 22.395 103.673 22.3442 103.425C22.3053 103.235 22.1937 103.066 22.031 102.95C21.8688 102.837 21.6128 102.78 21.2629 102.78H20.5359L20.5342 105.541Z" fill="url(#paint5_linear_167_559)"/>
<path d="M27.9517 111.222V101.368H32.459V102.756H30.0586V105.371H31.9095V106.77H30.0586V109.86H32.4846V111.222L27.9517 111.222Z" fill="url(#paint6_linear_167_559)"/>
<path d="M38.7403 111.369C38.0423 111.369 37.489 111.229 37.0806 110.949C36.6607 110.653 36.3541 110.235 36.2076 109.757C36.0228 109.176 35.9344 108.57 35.9456 107.963V104.666C35.9324 104.048 36.0228 103.432 36.2136 102.841C36.3724 102.355 36.7044 101.938 37.1522 101.66C37.5994 101.384 38.2058 101.247 38.9716 101.247C39.7112 101.247 40.2963 101.365 40.7269 101.6C41.1456 101.823 41.4722 102.175 41.6528 102.598C41.851 103.086 41.9464 103.607 41.9336 104.131V104.7H39.877V104.006C39.8793 103.776 39.8622 103.546 39.8258 103.319C39.8037 103.142 39.7209 102.978 39.5903 102.851C39.4662 102.737 39.2671 102.68 38.9929 102.68C38.7122 102.68 38.5074 102.749 38.3802 102.887C38.2465 103.037 38.1621 103.221 38.1379 103.416C38.1028 103.644 38.0857 103.874 38.0867 104.104V108.471C38.0841 108.72 38.1095 108.969 38.1626 109.213C38.2 109.408 38.3006 109.587 38.4502 109.724C38.5913 109.846 38.7935 109.907 39.0569 109.907C39.3203 109.907 39.5246 109.842 39.6696 109.712C39.8227 109.568 39.9273 109.383 39.97 109.182C40.0288 108.933 40.0574 108.678 40.0553 108.422V107.376H39.0467V106.157H41.9575V111.218H40.5784L40.4513 110.33C40.3193 110.624 40.1075 110.881 39.8377 111.072C39.5658 111.269 39.2 111.368 38.7403 111.369Z" fill="url(#paint7_linear_167_559)"/>
<path d="M45.4436 111.222L47.4481 101.368H49.7846L51.7764 111.222H49.8222L49.4527 109.057H47.8176L47.4225 111.222H45.4436ZM48.0096 107.828H49.2479L48.6224 103.851L48.0096 107.828Z" fill="url(#paint8_linear_167_559)"/>
<path d="M57.9811 111.357C57.3428 111.357 56.8108 111.245 56.3853 111.023C55.9565 110.796 55.6177 110.441 55.421 110.013C55.2043 109.562 55.0788 108.988 55.0447 108.291L56.8572 107.999C56.8659 108.341 56.9108 108.682 56.9912 109.015C57.0396 109.244 57.155 109.454 57.324 109.623C57.3981 109.69 57.4852 109.742 57.5804 109.776C57.6755 109.811 57.7769 109.827 57.8787 109.824C58.1506 109.824 58.3358 109.743 58.4342 109.58C58.5345 109.409 58.5852 109.216 58.581 109.02C58.5945 108.65 58.4852 108.286 58.2687 107.98C58.0292 107.669 57.7529 107.385 57.4452 107.134L56.3725 106.246C56.0001 105.95 55.6827 105.597 55.4338 105.2C55.1915 104.811 55.0703 104.333 55.0703 103.765C55.0703 102.952 55.3192 102.328 55.817 101.895C56.3148 101.461 56.9974 101.244 57.865 101.244C58.3844 101.244 58.8111 101.325 59.1451 101.488C59.4588 101.635 59.7255 101.86 59.9173 102.139C60.1 102.41 60.2298 102.712 60.3005 103.027C60.3716 103.342 60.4164 103.661 60.4345 103.982L58.6339 104.237C58.6199 103.972 58.5914 103.709 58.5486 103.447C58.5241 103.252 58.4448 103.067 58.319 102.911C58.2052 102.782 58.0328 102.717 57.8019 102.717C57.6941 102.71 57.5865 102.731 57.4899 102.777C57.3934 102.823 57.3114 102.892 57.2523 102.978C57.134 103.15 57.0719 103.351 57.074 103.556C57.0603 103.86 57.1475 104.16 57.3231 104.414C57.5219 104.671 57.751 104.906 58.0058 105.114L59.0529 105.989C59.4845 106.343 59.8607 106.754 60.1699 107.209C60.4806 107.668 60.6359 108.234 60.6359 108.907C60.6421 109.345 60.5276 109.777 60.3039 110.16C60.0875 110.529 59.7666 110.832 59.378 111.036C58.9494 111.256 58.468 111.367 57.9811 111.357Z" fill="url(#paint9_linear_167_559)"/>
<path d="M67.2118 111.357C66.429 111.357 65.8206 111.229 65.3865 110.974C64.9534 110.72 64.6296 110.327 64.4734 109.866C64.2982 109.384 64.2109 108.798 64.2114 108.108V101.368H66.2928V108.388C66.2928 108.628 66.3119 108.868 66.3499 109.106C66.3772 109.315 66.4659 109.512 66.6059 109.675C66.7374 109.821 66.9393 109.895 67.2118 109.895C67.4843 109.895 67.6908 109.821 67.8314 109.675C67.9709 109.513 68.0575 109.315 68.0805 109.106C68.1145 108.868 68.1316 108.628 68.1317 108.388V101.368H70.2122V108.108C70.2122 108.798 70.1252 109.384 69.9511 109.866C69.7949 110.327 69.4711 110.72 69.038 110.974C68.6039 111.229 67.9952 111.357 67.2118 111.357Z" fill="url(#paint10_linear_167_559)"/>
<path d="M76.9125 111.357C76.2742 111.357 75.7422 111.245 75.3167 111.023C74.8879 110.796 74.5491 110.441 74.3524 110.013C74.1356 109.562 74.0102 108.988 73.9761 108.291L75.7886 107.999C75.7971 108.341 75.8423 108.682 75.9234 109.015C75.9712 109.244 76.0863 109.455 76.2554 109.623C76.3295 109.69 76.4166 109.742 76.5118 109.776C76.6069 109.811 76.7083 109.827 76.8101 109.824C77.082 109.824 77.2672 109.743 77.3656 109.58C77.4659 109.409 77.5166 109.216 77.5124 109.02C77.5259 108.65 77.4166 108.286 77.2001 107.98C76.9604 107.669 76.6841 107.385 76.3766 107.134L75.3039 106.246C74.9317 105.95 74.6144 105.596 74.3652 105.2C74.1229 104.811 74.0017 104.333 74.0017 103.765C74.0017 102.952 74.2506 102.328 74.7484 101.895C75.2462 101.461 75.9288 101.244 76.7964 101.244C77.3164 101.244 77.7431 101.325 78.0765 101.488C78.3902 101.635 78.6569 101.86 78.8487 102.139C79.0314 102.41 79.1612 102.712 79.2319 103.027C79.303 103.342 79.3478 103.661 79.3659 103.982L77.5653 104.237C77.5513 103.972 77.5228 103.709 77.48 103.447C77.4555 103.252 77.3762 103.067 77.2504 102.911C77.1366 102.782 76.9642 102.717 76.7333 102.717C76.6255 102.71 76.5179 102.731 76.4213 102.777C76.3248 102.823 76.2428 102.892 76.1837 102.978C76.0654 103.15 76.0033 103.351 76.0054 103.556C75.9917 103.86 76.0789 104.16 76.2545 104.414C76.4533 104.671 76.6824 104.906 76.9372 105.114L77.9843 105.989C78.4159 106.343 78.7921 106.754 79.1013 107.209C79.412 107.668 79.5673 108.234 79.5673 108.907C79.5735 109.345 79.459 109.777 79.2353 110.16C79.0189 110.529 78.698 110.832 78.3094 111.036C77.8808 111.256 77.3994 111.367 76.9125 111.357Z" fill="url(#paint11_linear_167_559)"/>
<path d="M88.8152 111.222V101.368H91.3428C92.2189 101.368 92.9016 101.477 93.3908 101.694C93.8614 101.89 94.2344 102.252 94.4319 102.704C94.6362 103.161 94.7383 103.747 94.7383 104.461V108.05C94.7383 108.78 94.6362 109.38 94.4319 109.851C94.2405 110.308 93.8747 110.679 93.4079 110.891C92.9278 111.113 92.2576 111.225 91.3974 111.225L88.8152 111.222ZM90.9213 109.824H91.3684C91.7601 109.824 92.0383 109.765 92.2047 109.647C92.3771 109.519 92.4896 109.331 92.5179 109.125C92.5639 108.841 92.585 108.554 92.581 108.267V104.201C92.5873 103.926 92.5587 103.65 92.4957 103.381C92.4751 103.287 92.4351 103.199 92.3781 103.12C92.3211 103.042 92.2482 102.975 92.1637 102.924C91.9982 102.827 91.7279 102.778 91.353 102.778H90.9187L90.9213 109.824Z" fill="url(#paint12_linear_167_559)"/>
<path d="M98.6843 111.222V101.369H101.366C101.971 101.357 102.576 101.433 103.158 101.594C103.627 101.723 104.033 102.005 104.307 102.391C104.575 102.77 104.709 103.297 104.709 103.972C104.714 104.334 104.677 104.695 104.601 105.049C104.536 105.343 104.405 105.62 104.217 105.862C104.016 106.106 103.751 106.297 103.449 106.415L104.88 111.22H102.722L101.535 106.755H100.794V111.22L98.6843 111.222ZM100.791 105.566H101.404C101.745 105.566 102.014 105.513 102.209 105.408C102.404 105.302 102.552 105.131 102.623 104.927C102.711 104.67 102.752 104.401 102.745 104.131C102.745 103.676 102.657 103.329 102.483 103.09C102.308 102.85 101.983 102.731 101.506 102.731H100.791V105.566Z" fill="url(#paint13_linear_167_559)"/>
<path d="M111.49 111.357C110.733 111.357 110.132 111.227 109.69 110.967C109.249 110.71 108.914 110.317 108.739 109.854C108.548 109.372 108.452 108.794 108.452 108.12V104.447C108.452 103.774 108.548 103.198 108.739 102.719C108.913 102.26 109.249 101.873 109.69 101.625C110.133 101.373 110.733 101.247 111.49 101.247C112.248 101.248 112.854 101.376 113.31 101.63C113.752 101.88 114.09 102.266 114.267 102.726C114.458 103.199 114.554 103.773 114.555 104.447V108.12C114.555 108.794 114.459 109.371 114.267 109.854C114.092 110.319 113.754 110.712 113.31 110.967C112.863 111.227 112.256 111.357 111.49 111.357ZM111.49 109.909C111.763 109.909 111.962 109.85 112.088 109.733C112.222 109.603 112.312 109.438 112.344 109.258C112.388 109.048 112.409 108.834 112.408 108.62V103.96C112.409 103.747 112.388 103.535 112.344 103.327C112.311 103.15 112.221 102.986 112.088 102.859C111.96 102.742 111.76 102.682 111.49 102.682C111.234 102.682 111.043 102.742 110.915 102.859C110.782 102.987 110.693 103.15 110.659 103.327C110.615 103.535 110.594 103.747 110.595 103.96V108.62C110.594 108.834 110.614 109.047 110.653 109.258C110.681 109.437 110.769 109.604 110.903 109.733C111.031 109.85 111.226 109.909 111.49 109.909Z" fill="url(#paint14_linear_167_559)"/>
<path d="M118.512 111.222V101.368H119.98L122.278 106.502V101.368H124.018V111.222H122.613L120.315 105.775V111.222H118.512Z" fill="url(#paint15_linear_167_559)"/>
<path d="M128.138 111.222V101.368H132.646V102.756H130.247V105.371H132.099V106.77H130.247V109.86H132.673V111.222L128.138 111.222Z" fill="url(#paint16_linear_167_559)"/>
<defs>
<linearGradient id="paint0_linear_167_559" x1="75.6971" y1="22.0127" x2="75.6971" y2="94.5556" gradientUnits="userSpaceOnUse">
<stop stop-color="#F9ED32"/>
<stop offset="1" stop-color="#AD6B28"/>
</linearGradient>
<linearGradient id="paint1_linear_167_559" x1="6.54352" y1="45.9949" x2="6.54352" y2="46.8739" gradientUnits="userSpaceOnUse">
<stop stop-color="#FBCF63"/>
<stop offset="1" stop-color="#AD6B28"/>
</linearGradient>
<linearGradient id="paint2_linear_167_559" x1="5655.56" y1="2296.4" x2="5655.56" y2="2364.5" gradientUnits="userSpaceOnUse">
<stop stop-color="#FBCF63"/>
<stop offset="1" stop-color="#AD6B28"/>
</linearGradient>
<linearGradient id="paint3_linear_167_559" x1="20618.2" y1="2310.57" x2="20618.2" y2="2366.82" gradientUnits="userSpaceOnUse">
<stop stop-color="#FBCF63"/>
<stop offset="1" stop-color="#AD6B28"/>
</linearGradient>
<linearGradient id="paint4_linear_167_559" x1="23821.3" y1="2275.48" x2="23821.3" y2="2382.42" gradientUnits="userSpaceOnUse">
<stop stop-color="#FBCF63"/>
<stop offset="1" stop-color="#AD6B28"/>
</linearGradient>
<linearGradient id="paint5_linear_167_559" x1="1942.14" y1="16133.1" x2="2358.73" y2="16133.1" gradientUnits="userSpaceOnUse">
<stop stop-color="#FBCF63"/>
<stop offset="1" stop-color="#AD6B28"/>
</linearGradient>
<linearGradient id="paint6_linear_167_559" x1="1996.39" y1="16133.1" x2="2237.18" y2="16133.1" gradientUnits="userSpaceOnUse">
<stop stop-color="#FBCF63"/>
<stop offset="1" stop-color="#AD6B28"/>
</linearGradient>
<linearGradient id="paint7_linear_167_559" x1="3210.33" y1="16569.7" x2="3634.08" y2="16569.7" gradientUnits="userSpaceOnUse">
<stop stop-color="#FBCF63"/>
<stop offset="1" stop-color="#AD6B28"/>
</linearGradient>
<linearGradient id="paint8_linear_167_559" x1="4093.54" y1="16133.1" x2="4563.49" y2="16133.1" gradientUnits="userSpaceOnUse">
<stop stop-color="#FBCF63"/>
<stop offset="1" stop-color="#AD6B28"/>
</linearGradient>
<linearGradient id="paint9_linear_167_559" x1="4258.35" y1="16555.4" x2="4624.75" y2="16555.4" gradientUnits="userSpaceOnUse">
<stop stop-color="#FBCF63"/>
<stop offset="1" stop-color="#AD6B28"/>
</linearGradient>
<linearGradient id="paint10_linear_167_559" x1="5219.85" y1="16359.6" x2="5641.83" y2="16359.6" gradientUnits="userSpaceOnUse">
<stop stop-color="#FBCF63"/>
<stop offset="1" stop-color="#AD6B28"/>
</linearGradient>
<linearGradient id="paint11_linear_167_559" x1="5517.9" y1="16555.4" x2="5884.31" y2="16555.4" gradientUnits="userSpaceOnUse">
<stop stop-color="#FBCF63"/>
<stop offset="1" stop-color="#AD6B28"/>
</linearGradient>
<linearGradient id="paint12_linear_167_559" x1="6885.45" y1="16137" x2="7296.63" y2="16137" gradientUnits="userSpaceOnUse">
<stop stop-color="#FBCF63"/>
<stop offset="1" stop-color="#AD6B28"/>
</linearGradient>
<linearGradient id="paint13_linear_167_559" x1="7924.17" y1="16134.8" x2="8373.76" y2="16134.8" gradientUnits="userSpaceOnUse">
<stop stop-color="#FBCF63"/>
<stop offset="1" stop-color="#AD6B28"/>
</linearGradient>
<linearGradient id="paint14_linear_167_559" x1="8516.17" y1="16549" x2="8952.67" y2="16549" gradientUnits="userSpaceOnUse">
<stop stop-color="#FBCF63"/>
<stop offset="1" stop-color="#AD6B28"/>
</linearGradient>
<linearGradient id="paint15_linear_167_559" x1="8352.32" y1="16133.1" x2="8707.39" y2="16133.1" gradientUnits="userSpaceOnUse">
<stop stop-color="#FBCF63"/>
<stop offset="1" stop-color="#AD6B28"/>
</linearGradient>
<linearGradient id="paint16_linear_167_559" x1="7421.3" y1="16133.1" x2="7662.18" y2="16133.1" gradientUnits="userSpaceOnUse">
<stop stop-color="#FBCF63"/>
<stop offset="1" stop-color="#AD6B28"/>
</linearGradient>
</defs>
</svg>
